<svg xmlns="http://www.w3.org/2000/svg" viewBox="0 0 442.47 442.37"><defs><style>.cls-1{fill:#999;}</style></defs><g id="Layer_2" data-name="Layer 2"><g id="Layer_1-2" data-name="Layer 1"><path class="cls-1" d="M213,442.37c-2.57-.21-5.14-.46-7.71-.64-41.66-3-79.28-17.19-113.26-41.12-33.09-23.3-57-54.1-73.3-91A218,218,0,0,1,2.17,252.12c-13.41-93.74,36.08-191.89,129-232.73A222.67,222.67,0,0,1,192.83,1.87a212.11,212.11,0,0,1,52.39-.47c53.69,6.41,99.62,28.84,136.89,68,29.39,30.88,47.75,67.79,56.24,109.56a217.07,217.07,0,0,1,3.34,60.84c-6.08,75.93-57,169.15-170,196.74a204.74,204.74,0,0,1-40.12,5.54,17.26,17.26,0,0,0-2,.3Zm9.3-31.21c7.66-.62,16.3-1,24.86-2.07a179,179,0,0,0,59.33-18.47,188.92,188.92,0,0,0,68.74-58.84,4.11,4.11,0,0,0,.64-2.64q-.72-5.29-1.76-10.55c-3.21-16.29-8.32-31.89-16.44-46.47-10.42-18.7-25.54-30.82-47.07-34.21a2.67,2.67,0,0,0-2.71.87c-21.62,22.73-48,35.35-79.38,37.4a115.63,115.63,0,0,1-56.13-10.28,117.93,117.93,0,0,1-37.66-27,3.15,3.15,0,0,0-2.28-1,63.28,63.28,0,0,0-19.84,6.18c-11.78,6-20.29,15.32-26.84,26.61-10.41,17.94-15.89,37.49-19.06,57.82a4.55,4.55,0,0,0,.94,3.78C106.07,383.41,157.4,409.4,222.25,411.16Zm-1-158.34c51.66,1,95-43.43,95.08-94.72C316.36,106.58,272.82,63,221.25,63s-95,43.59-95.08,94.95S169.59,253.85,221.23,252.82Z"/></g></g></svg>