<?xml version="1.0" encoding="UTF-8"?> <!-- Generator: Adobe Illustrator 23.0.6, SVG Export Plug-In . SVG Version: 6.00 Build 0) --> <svg xmlns="http://www.w3.org/2000/svg" xmlns:xlink="http://www.w3.org/1999/xlink" id="Layer_1" x="0px" y="0px" viewBox="0 0 417.6 417.6" style="enable-background:new 0 0 417.6 417.6;" xml:space="preserve"> <style type="text/css"> .st0{fill:#E2743D;} .st1{fill:#D16830;} .st2{fill:#E3743C;} .st3{fill:#20500E;} </style> <g> <path class="st0" d="M250.78,206.75c0,14.39-0.01,28.78,0.01,43.17c0.01,5.75-2.22,10.43-7.4,12.95c-4.73,2.3-9.8,3.26-15.12,1.22 c-3.65-1.4-6.81-3.19-8.71-6.72c-1.23-2.29-1.83-4.81-1.85-7.37c-0.08-9.23-0.09-18.46,0.01-27.7c0.02-1.86-0.56-2.28-2.3-2.23 c-3.93,0.12-7.88,0.12-11.81,0c-1.74-0.05-2.34,0.37-2.31,2.23c0.1,8.89,0.44,17.8-0.08,26.65c-0.48,8.1-3.27,13.21-12.23,15.49 c-6.22,1.58-11.52,0.07-16.3-3.51c-3.54-2.65-4.93-6.79-4.95-11.1c-0.08-28.85-0.12-57.7,0.03-86.55 c0.01-1.92,0.39-6.61,3.69-10.24c5.05-5.57,15.92-7.26,22.9-2.27c4.37,3.12,5.93,7.93,6.31,9.16c0.96,3.15,0.63,6.3,0.67,9.46 c0.06,6.04,0.06,12.08-0.01,18.11c-0.02,1.44,0.43,1.87,1.85,1.84c4.21-0.08,8.42-0.09,12.62,0.01c1.55,0.04,1.94-0.48,1.93-1.96 c-0.07-8.07-0.19-16.14,0.01-24.21c0.08-3.38,0.99-6.51,2.96-9.04c2.64-3.4,6.28-4.56,7.95-5.09c0.88-0.28,6.97-2.12,13.53,0.75 c1.61,0.7,4.14,1.81,6.06,4.39c1.6,2.15,2.48,4.98,2.51,8.74C250.85,177.56,250.78,192.16,250.78,206.75z"></path> </g> <g> <g> <path class="st1" d="M106.16,183.22c-3.93,0-7.84-1.59-10.7-4.72c-5.4-5.91-4.99-15.08,0.92-20.49l103.08-94.25 c5.91-5.4,15.08-4.99,20.49,0.92s4.99,15.08-0.92,20.49l-103.08,94.25C113.16,181.97,109.65,183.22,106.16,183.22z"></path> </g> </g> <g> <g> <path class="st2" d="M312.94,182.9c3.93,0,7.84-1.59,10.7-4.72c5.4-5.91,4.99-15.08-0.92-20.49L219.65,63.45 c-5.91-5.4-15.08-4.99-20.49,0.92s-4.99,15.08,0.92,20.49l103.08,94.25C305.94,181.64,309.45,182.9,312.94,182.9z"></path> </g> </g> <g> <path class="st3" d="M40.26,312.7c-0.29,0.71-1.22,0.97-2.14,0.97c-1.05,0-1.97-0.34-2.23-0.97l-3.23-9.16l-3.19,9.12 c-0.25,0.67-1.26,1.01-2.31,1.01c-0.88,0-1.81-0.25-2.1-1.01l-6.47-16.59c-0.17-0.34-0.21-0.59-0.21-0.8c0-1.3,2.1-2.23,3.53-2.23 c0.71,0,1.34,0.29,1.55,0.88l4.2,11.93l3.15-10.38c0.29-0.97,1.01-1.09,1.85-1.09c0.8,0,1.55,0.13,1.85,1.09l3.11,10.42l4.24-11.97 c0.21-0.55,0.8-0.88,1.55-0.88c1.34,0,3.49,0.92,3.49,2.27c0,0.25-0.04,0.55-0.17,0.76L40.26,312.7z"></path> <path class="st3" d="M69.95,312.7c-0.29,0.71-1.22,0.97-2.14,0.97c-1.05,0-1.97-0.34-2.23-0.97l-3.23-9.16l-3.19,9.12 c-0.25,0.67-1.26,1.01-2.31,1.01c-0.88,0-1.81-0.25-2.1-1.01l-6.47-16.59c-0.17-0.34-0.21-0.59-0.21-0.8c0-1.3,2.1-2.23,3.53-2.23 c0.71,0,1.34,0.29,1.55,0.88l4.2,11.93l3.15-10.38c0.29-0.97,1.01-1.09,1.85-1.09c0.8,0,1.55,0.13,1.85,1.09l3.11,10.42l4.24-11.97 c0.21-0.55,0.8-0.88,1.55-0.88c1.34,0,3.49,0.92,3.49,2.27c0,0.25-0.04,0.55-0.17,0.76L69.95,312.7z"></path> <path class="st3" d="M99.65,312.7c-0.29,0.71-1.22,0.97-2.14,0.97c-1.05,0-1.97-0.34-2.23-0.97l-3.23-9.16l-3.19,9.12 c-0.25,0.67-1.26,1.01-2.31,1.01c-0.88,0-1.81-0.25-2.1-1.01l-6.47-16.59c-0.17-0.34-0.21-0.59-0.21-0.8c0-1.3,2.1-2.23,3.53-2.23 c0.71,0,1.34,0.29,1.55,0.88l4.2,11.93l3.15-10.38c0.29-0.97,1.01-1.09,1.85-1.09c0.8,0,1.55,0.13,1.85,1.09L97,305.89l4.24-11.97 c0.21-0.55,0.8-0.88,1.55-0.88c1.34,0,3.49,0.92,3.49,2.27c0,0.25-0.04,0.55-0.17,0.76L99.65,312.7z"></path> <path class="st3" d="M112.96,310.6c0,1.51-1.3,2.86-2.82,2.86c-1.64,0-2.86-1.34-2.86-2.86c0-1.55,1.22-2.86,2.86-2.86 C111.66,307.74,112.96,309.04,112.96,310.6z"></path> <path class="st3" d="M122.28,311.48c0,0.84-1.26,1.72-2.73,1.72c-1.6,0-2.69-0.88-2.69-1.72v-28.19c0-1.01,1.09-1.68,2.69-1.68 c1.47,0,2.73,0.67,2.73,1.68v12.9c0.76-1.64,2.65-3.19,5.29-3.19c3.86,0,7.22,3.87,7.22,8.53v9.96c0,1.13-1.39,1.72-2.73,1.72 c-1.26,0-2.69-0.59-2.69-1.72v-9.96c0-1.89-1.68-3.78-3.65-3.78c-1.72,0-3.44,1.43-3.44,3.78V311.48z"></path> <path class="st3" d="M156.89,301.52v3.44c0,4.5-4.24,8.61-9.12,8.61c-4.92,0-9.12-4.07-9.12-8.61v-3.44c0-4.54,4.12-8.53,9.12-8.53 C152.65,292.99,156.89,296.86,156.89,301.52z M151.47,301.52c0-1.89-1.68-3.78-3.7-3.78c-2.06,0-3.7,1.89-3.7,3.78v3.44 c0,1.97,1.64,3.86,3.7,3.86c2.02,0,3.7-1.89,3.7-3.86V301.52z"></path> <path class="st3" d="M173.06,301.52c0-2.35-1.68-3.78-3.44-3.78c-1.64,0-3.28,1.3-3.28,3.78v9.96c0,0.84-1.26,1.72-2.73,1.72 c-1.6,0-2.69-0.88-2.69-1.72v-16.55c0-1.01,1.09-1.68,2.69-1.68c1.3,0,2.39,0.67,2.39,1.68v1.26c0.92-1.64,2.77-3.19,5.54-3.19 c2.39,0,4.37,1.72,5.25,4.2c1.47-2.86,3.91-4.2,6.34-4.2c3.82,0,7.48,3.07,7.48,8.53v9.96c0,0.84-1.26,1.72-2.73,1.72 c-1.43,0-2.69-0.88-2.69-1.72v-9.96c0-2.52-1.72-3.82-3.4-3.82c-1.68,0-3.32,1.34-3.32,3.78v10.04c0,1.18-1.39,1.68-2.73,1.68 c-1.26,0-2.69-0.5-2.69-1.68V301.52z"></path> <path class="st3" d="M212.33,300.89c0,3.57-2.02,3.74-3.91,3.74h-8.53v0.63c0,2.44,1.97,4.03,4.91,4.03c2.77,0,3.91-1.6,5.17-1.6 c1.26,0,2.06,1.55,2.06,2.39c0,1.43-2.9,3.49-7.39,3.49c-5.96,0-10.17-3.44-10.17-8.61v-3.57c0-4.54,4.08-8.4,9.2-8.4 C208.3,292.99,212.33,296.23,212.33,300.89z M206.03,301.44c0.88,0,1.22-0.21,1.22-1.13c0-1.97-1.68-3.32-3.7-3.32 c-1.89,0-3.65,1.26-3.65,3.28v1.18H206.03z"></path> <path class="st3" d="M225.56,307.66c0-3.7-9.96-1.39-9.96-8.4c0-2.98,1.89-6.26,7.52-6.26c3.4,0,6.68,1.18,6.68,2.73 c0,0.76-0.71,2.6-1.97,2.6c-1.01,0-2.31-1.22-4.62-1.22c-2.1,0-2.94,1.05-2.94,1.89c0,3.07,10.08,0.97,10.08,8.44 c0,3.74-2.77,6.13-7.73,6.13c-4.28,0-7.6-1.76-7.6-3.61c0-0.88,0.76-2.39,1.81-2.39c1.22,0,2.14,1.89,5.67,1.89 C224.97,309.46,225.56,308.5,225.56,307.66z"></path> <path class="st3" d="M239.75,286.15c0,1.39-1.3,2.65-2.94,2.65c-1.68,0-2.98-1.26-2.98-2.65c0-1.43,1.3-2.65,2.98-2.65 C238.45,283.5,239.75,284.72,239.75,286.15z M239.54,294.93v16.55c0,0.84-1.22,1.72-2.73,1.72c-1.55,0-2.69-0.88-2.69-1.72v-16.55 c0-1.01,1.13-1.68,2.69-1.68C238.33,293.25,239.54,293.92,239.54,294.93z"></path> <path class="st3" d="M249.75,311.48c0,0.84-1.26,1.72-2.73,1.72c-1.6,0-2.69-0.88-2.69-1.72v-16.55c0-1.01,1.09-1.68,2.69-1.68 c1.3,0,2.39,0.67,2.39,1.68v1.26c0.8-1.64,2.81-3.19,5.63-3.19c3.86,0,7.22,3.87,7.22,8.53v9.96c0,1.13-1.39,1.72-2.73,1.72 c-1.26,0-2.69-0.59-2.69-1.72v-9.96c0-1.89-1.64-3.78-3.65-3.78c-1.72,0-3.44,1.43-3.44,3.78V311.48z"></path> <path class="st3" d="M272.35,293.25h5.13c0.88,0,1.39,1.01,1.39,1.97c0,1.01-0.5,1.97-1.39,1.97h-5.13v14.32 c0,1.01-1.3,1.68-2.77,1.68c-1.51,0-2.65-0.67-2.65-1.68v-21.68c0-4.7,3.36-8.23,7.39-8.23h2.48c1.39,0,2.06,1.13,2.06,2.27 c0,1.18-0.67,2.31-2.06,2.31h-1.34c-1.81,0-3.11,1.18-3.11,3.07V293.25z"></path> <path class="st3" d="M292,297.74c-2.44,0-4.83,2.39-4.83,6.22v7.52c0,0.84-1.26,1.72-2.77,1.72c-1.55,0-2.65-0.88-2.65-1.72v-16.55 c0-1.01,1.09-1.68,2.65-1.68c1.34,0,2.44,0.67,2.44,1.68v1.72c0.84-1.81,2.86-3.66,5.17-3.66h1.3c1.01,0,1.97,1.09,1.97,2.35 c0,1.3-0.97,2.39-1.97,2.39H292z"></path> <path class="st3" d="M313.93,301.19v10.29c0,0.97-1.13,1.72-2.65,1.72c-1.39,0-2.44-0.76-2.44-1.72v-1.22 c-1.51,1.72-3.49,3.32-6.39,3.32c-2.98,0-5.46-1.76-5.46-5.59c0-4.83,3.99-6.17,9.79-6.17h1.72v-0.55c0-1.81-0.92-3.87-3.7-3.87 c-3.23,0-3.78,1.3-4.79,1.3c-1.22,0-1.85-1.47-1.85-2.69c0-1.72,3.74-3.03,6.72-3.03C311.45,292.99,313.93,296.94,313.93,301.19z M308.51,304.63h-0.63c-2.81,0-5.46,0.29-5.46,2.65c0,1.55,0.97,2.27,2.23,2.27c1.72,0,3.87-1.97,3.87-4.03V304.63z"></path> <path class="st3" d="M323.29,310.6c0,1.51-1.3,2.86-2.82,2.86c-1.64,0-2.86-1.34-2.86-2.86c0-1.55,1.22-2.86,2.86-2.86 C321.99,307.74,323.29,309.04,323.29,310.6z"></path> <path class="st3" d="M326.48,304.97v-3.36c0-4.83,2.73-8.61,9.07-8.61c3.95,0,6.72,1.64,6.72,3.28c0,1.01-0.84,2.65-2.14,2.65 c-0.92,0-1.68-1.18-4.16-1.18c-2.86,0-4.07,1.43-4.07,3.87v3.36c0,2.44,1.22,3.86,4.12,3.86c2.52,0,3.15-1.26,4.2-1.26 c1.47,0,2.31,1.51,2.31,2.56c0,1.68-2.98,3.44-6.93,3.44C329.25,313.58,326.48,309.88,326.48,304.97z"></path> <path class="st3" d="M363.28,301.52v3.44c0,4.5-4.24,8.61-9.12,8.61c-4.92,0-9.12-4.07-9.12-8.61v-3.44c0-4.54,4.12-8.53,9.12-8.53 C359.04,292.99,363.28,296.86,363.28,301.52z M357.86,301.52c0-1.89-1.68-3.78-3.7-3.78c-2.06,0-3.7,1.89-3.7,3.78v3.44 c0,1.97,1.64,3.86,3.7,3.86c2.02,0,3.7-1.89,3.7-3.86V301.52z"></path> <path class="st3" d="M379.45,301.52c0-2.35-1.68-3.78-3.44-3.78c-1.64,0-3.28,1.3-3.28,3.78v9.96c0,0.84-1.26,1.72-2.73,1.72 c-1.6,0-2.69-0.88-2.69-1.72v-16.55c0-1.01,1.09-1.68,2.69-1.68c1.3,0,2.39,0.67,2.39,1.68v1.26c0.92-1.64,2.77-3.19,5.54-3.19 c2.39,0,4.37,1.72,5.25,4.2c1.47-2.86,3.91-4.2,6.34-4.2c3.82,0,7.48,3.07,7.48,8.53v9.96c0,0.84-1.26,1.72-2.73,1.72 c-1.43,0-2.69-0.88-2.69-1.72v-9.96c0-2.52-1.72-3.82-3.4-3.82c-1.68,0-3.32,1.34-3.32,3.78v10.04c0,1.18-1.39,1.68-2.73,1.68 c-1.26,0-2.69-0.5-2.69-1.68V301.52z"></path> </g> <g> <path class="st2" d="M109.59,340.27v3.13c0,3.54-3.3,6.77-7.04,6.77c-3.77,0-7.04-3.2-7.04-6.77v-3.13c0-3.57,3.16-6.7,7.04-6.7 C106.29,333.58,109.59,336.6,109.59,340.27z M106.02,340.27c0-1.77-1.56-3.54-3.47-3.54c-1.94,0-3.47,1.77-3.47,3.54v3.13 c0,1.84,1.53,3.6,3.47,3.6c1.9,0,3.47-1.77,3.47-3.6V340.27z"></path> <path class="st2" d="M116.77,348.7c0,0.58-0.85,1.19-1.8,1.19c-1.05,0-1.77-0.61-1.77-1.19v-13.77c0-0.68,0.71-1.16,1.77-1.16 c0.88,0,1.6,0.48,1.6,1.16v1.22c0.68-1.33,2.28-2.58,4.56-2.58c3.2,0,5.92,3.03,5.92,6.7v8.43c0,0.78-0.88,1.19-1.8,1.19 c-0.82,0-1.77-0.41-1.77-1.19v-8.43c0-1.77-1.53-3.54-3.43-3.54c-1.63,0-3.26,1.33-3.26,3.54V348.7z"></path> <path class="st2" d="M144.34,339.86c0,2.82-1.56,2.92-3.09,2.92h-7.17v0.78c0,2.28,1.8,3.71,4.42,3.71c2.41,0,3.23-1.29,4.15-1.29 c0.85,0,1.39,0.99,1.39,1.6c0,1.02-2.21,2.58-5.64,2.58c-4.62,0-7.89-2.72-7.89-6.77v-3.23c0-3.57,3.16-6.6,7.07-6.6 C141.21,333.58,144.34,336.16,144.34,339.86z M139.72,340.58c0.99,0,1.26-0.2,1.26-1.02c0-1.8-1.5-3.26-3.43-3.26 c-1.87,0-3.47,1.33-3.47,3.2v1.09H139.72z"></path> <path class="st2" d="M162.67,345.58c0-3.57-8.19-1.46-8.19-7.11c0-2.35,1.53-4.9,5.81-4.9c2.55,0,5.1,0.92,5.1,2.01 c0,0.51-0.51,1.73-1.36,1.73c-0.71,0-1.77-0.99-3.67-0.99c-2.01,0-2.75,1.12-2.75,1.97c0,2.99,8.26,1.02,8.26,7.14 c0,2.89-2.14,4.73-5.98,4.73c-3.37,0-5.85-1.43-5.85-2.72c0-0.61,0.51-1.6,1.22-1.6c0.88,0,1.6,1.56,4.52,1.56 C162.02,347.41,162.67,346.49,162.67,345.58z"></path> <path class="st2" d="M172.73,344.59c0,1.63,0.61,2.24,2.38,2.24h1.19c1.02,0,1.53,0.75,1.53,1.53c0,0.78-0.51,1.53-1.53,1.53h-1.19 c-3.88,0-5.95-1.6-5.95-5.3v-17.03c0-0.68,0.92-1.16,1.77-1.16c0.88,0,1.8,0.48,1.8,1.16v6.22h4.15c0.61,0,0.99,0.65,0.99,1.33 c0,0.68-0.37,1.33-0.99,1.33h-4.15V344.59z"></path> <path class="st2" d="M194.05,340.27v3.13c0,3.54-3.3,6.77-7.04,6.77c-3.77,0-7.04-3.2-7.04-6.77v-3.13c0-3.57,3.16-6.7,7.04-6.7 C190.75,333.58,194.05,336.6,194.05,340.27z M190.48,340.27c0-1.77-1.56-3.54-3.47-3.54c-1.94,0-3.47,1.77-3.47,3.54v3.13 c0,1.84,1.53,3.6,3.47,3.6c1.9,0,3.47-1.77,3.47-3.6V340.27z"></path> <path class="st2" d="M201.05,334.94v1.22c0.75-1.33,2.38-2.58,4.56-2.58c3.4,0,6.12,3.03,6.12,6.7v3.13c0,3.54-2.79,6.77-5.98,6.77 c-2.04,0-3.81-1.26-4.49-2.65v8.84c0,0.61-0.82,1.19-1.84,1.19s-1.73-0.58-1.73-1.19v-21.42c0-0.68,0.75-1.16,1.7-1.16 S201.05,334.25,201.05,334.94z M208.16,340.27c0-1.77-1.6-3.54-3.54-3.54c-1.67,0-3.37,1.33-3.37,3.54v3.91 c0,0.82,1.43,2.82,3.43,2.82c1.84,0,3.47-1.77,3.47-3.6V340.27z"></path> <path class="st2" d="M230.29,345.58c0-3.57-8.19-1.46-8.19-7.11c0-2.35,1.53-4.9,5.81-4.9c2.55,0,5.1,0.92,5.1,2.01 c0,0.51-0.51,1.73-1.36,1.73c-0.71,0-1.77-0.99-3.67-0.99c-2.01,0-2.75,1.12-2.75,1.97c0,2.99,8.26,1.02,8.26,7.14 c0,2.89-2.14,4.73-5.98,4.73c-3.37,0-5.85-1.43-5.85-2.72c0-0.61,0.51-1.6,1.22-1.6c0.88,0,1.6,1.56,4.52,1.56 C229.65,347.41,230.29,346.49,230.29,345.58z"></path> <path class="st2" d="M250.25,340.27v3.13c0,3.54-3.3,6.77-7.04,6.77c-3.77,0-7.04-3.2-7.04-6.77v-3.13c0-3.57,3.16-6.7,7.04-6.7 C246.95,333.58,250.25,336.6,250.25,340.27z M246.68,340.27c0-1.77-1.56-3.54-3.47-3.54c-1.94,0-3.47,1.77-3.47,3.54v3.13 c0,1.84,1.53,3.6,3.47,3.6c1.9,0,3.47-1.77,3.47-3.6V340.27z"></path> <path class="st2" d="M257.73,325.35v23.36c0,0.58-0.82,1.19-1.8,1.19c-1.05,0-1.77-0.61-1.77-1.19v-23.36 c0-0.68,0.71-1.16,1.77-1.16C256.91,324.19,257.73,324.67,257.73,325.35z"></path> <path class="st2" d="M262.12,343.47v-8.5c0-0.61,0.82-1.19,1.8-1.19c0.95,0,1.77,0.58,1.77,1.19v8.5c0,1.8,1.56,3.54,3.47,3.54 c1.94,0,3.47-1.73,3.47-3.54v-8.53c0-0.61,0.82-1.16,1.8-1.16c1.02,0,1.73,0.54,1.73,1.16v8.53c0,3.57-3.16,6.7-7,6.7 C265.31,350.17,262.12,347,262.12,343.47z"></path> <path class="st2" d="M283.77,344.59c0,1.63,0.61,2.24,2.38,2.24h1.19c1.02,0,1.53,0.75,1.53,1.53c0,0.78-0.51,1.53-1.53,1.53h-1.19 c-3.88,0-5.95-1.6-5.95-5.3v-17.03c0-0.68,0.92-1.16,1.77-1.16c0.88,0,1.8,0.48,1.8,1.16v6.22h4.15c0.61,0,0.99,0.65,0.99,1.33 c0,0.68-0.37,1.33-0.99,1.33h-4.15V344.59z"></path> <path class="st2" d="M295.74,327.86c0,0.99-0.92,1.87-2.07,1.87s-2.07-0.88-2.07-1.87c0-1.02,0.92-1.87,2.07-1.87 S295.74,326.84,295.74,327.86z M295.47,334.94v13.77c0,0.58-0.78,1.19-1.8,1.19s-1.77-0.61-1.77-1.19v-13.77 c0-0.68,0.75-1.16,1.77-1.16S295.47,334.25,295.47,334.94z"></path> <path class="st2" d="M313.11,340.27v3.13c0,3.54-3.3,6.77-7.04,6.77c-3.77,0-7.04-3.2-7.04-6.77v-3.13c0-3.57,3.16-6.7,7.04-6.7 C309.82,333.58,313.11,336.6,313.11,340.27z M309.54,340.27c0-1.77-1.56-3.54-3.47-3.54c-1.94,0-3.47,1.77-3.47,3.54v3.13 c0,1.84,1.53,3.6,3.47,3.6c1.9,0,3.47-1.77,3.47-3.6V340.27z"></path> <path class="st2" d="M320.29,348.7c0,0.58-0.85,1.19-1.8,1.19c-1.05,0-1.77-0.61-1.77-1.19v-13.77c0-0.68,0.71-1.16,1.77-1.16 c0.88,0,1.6,0.48,1.6,1.16v1.22c0.68-1.33,2.28-2.58,4.56-2.58c3.2,0,5.92,3.03,5.92,6.7v8.43c0,0.78-0.88,1.19-1.8,1.19 c-0.82,0-1.77-0.41-1.77-1.19v-8.43c0-1.77-1.53-3.54-3.43-3.54c-1.63,0-3.26,1.33-3.26,3.54V348.7z"></path> </g> </svg> 